# Blender v2.79 (sub 0) OBJ File: 'minislots generic model console.blend'
# www.blender.org
o Cube
v 0.500000 -0.500000 -0.500000
v 0.500000 1.500000 -0.187500
v 0.500000 -0.500000 0.500000
v 0.500000 1.500000 0.500000
v -0.500000 -0.500000 -0.500000
v -0.500000 1.500000 -0.187500
v -0.500000 -0.500000 0.500000
v -0.500000 1.500000 0.500000
v 0.500000 0.500000 -0.500000
v -0.500000 0.500000 -0.500000
v 0.500000 0.625000 -0.187500
v -0.500000 0.625000 -0.187500
vt 0.500000 0.250000
vt 0.500000 0.750000
vt 0.250000 0.750000
vt 0.250000 0.250000
vt 1.000000 0.539062
vt 1.000000 0.750000
vt 0.750000 0.750000
vt 0.750000 0.539062
vt 0.500000 -0.000000
vt 0.750000 0.000000
vt 0.750000 0.250000
vt 0.500000 1.000000
vt 0.671875 0.750000
vt 0.671875 1.000000
vt 1.000000 0.250000
vt 1.000000 0.500000
vt 0.750000 0.500000
vt 0.078125 0.750000
vt 0.078125 0.531250
vt 0.671875 0.531250
vt 0.000000 0.500000
vt 0.000000 0.250000
vn 0.0000 0.0000 1.0000
vn 0.0000 0.0000 -1.0000
vn 0.0000 -1.0000 0.0000
vn 0.0000 1.0000 0.0000
vn 0.0000 0.9285 -0.3714
vn -1.0000 0.0000 0.0000
vn 1.0000 0.0000 0.0000
g Cube_Cube_Material
s off
f 3/1/1 4/2/1 8/3/1 7/4/1
f 12/5/2 6/6/2 2/7/2 11/8/2
f 3/1/3 7/9/3 5/10/3 1/11/3
f 8/12/4 4/2/4 2/13/4 6/14/4
f 5/15/2 10/16/2 9/17/2 1/11/2
f 10/16/5 12/5/5 11/8/5 9/17/5
f 8/3/6 6/18/6 12/19/6
f 11/20/7 2/13/7 4/2/7
f 10/21/6 5/22/6 12/19/6
f 5/22/6 7/4/6 12/19/6
f 7/4/6 8/3/6 12/19/6
f 4/2/7 3/1/7 11/20/7
f 3/1/7 1/11/7 11/20/7
f 1/11/7 9/17/7 11/20/7
